<mxfile host="app.diagrams.net" agent="Mozilla/5.0 (Macintosh; Intel Mac OS X 10_15_7) AppleWebKit/605.1.15 (KHTML, like Gecko) Version/18.4 Safari/605.1.15" version="27.0.5">
  <diagram name="Page-1" id="2YBvvXClWsGukQMizWep">
    <mxGraphModel dx="1137" dy="704" grid="1" gridSize="10" guides="1" tooltips="1" connect="1" arrows="1" fold="1" page="1" pageScale="1" pageWidth="850" pageHeight="1100" math="0" shadow="0">
      <root>
        <mxCell id="0" />
        <mxCell id="1" parent="0" />
        <mxCell id="RM2-QQJxr75B0GMXDb8Q-1" value="frame" style="shape=umlFrame;whiteSpace=wrap;html=1;pointerEvents=0;" parent="1" vertex="1">
          <mxGeometry x="50" y="40" width="660" height="290" as="geometry" />
        </mxCell>
        <mxCell id="RM2-QQJxr75B0GMXDb8Q-2" value="CEO" style="shape=umlLifeline;perimeter=lifelinePerimeter;whiteSpace=wrap;html=1;container=1;dropTarget=0;collapsible=0;recursiveResize=0;outlineConnect=0;portConstraint=eastwest;newEdgeStyle={&quot;curved&quot;:0,&quot;rounded&quot;:0};participant=umlActor;" parent="1" vertex="1">
          <mxGeometry x="80" y="80" width="20" height="230" as="geometry" />
        </mxCell>
        <mxCell id="RM2-QQJxr75B0GMXDb8Q-3" value=":CeoWindow" style="shape=umlLifeline;perimeter=lifelinePerimeter;whiteSpace=wrap;html=1;container=1;dropTarget=0;collapsible=0;recursiveResize=0;outlineConnect=0;portConstraint=eastwest;newEdgeStyle={&quot;curved&quot;:0,&quot;rounded&quot;:0};" parent="1" vertex="1">
          <mxGeometry x="200" y="80" width="100" height="230" as="geometry" />
        </mxCell>
        <mxCell id="RM2-QQJxr75B0GMXDb8Q-8" value="" style="html=1;points=[[0,0,0,0,5],[0,1,0,0,-5],[1,0,0,0,5],[1,1,0,0,-5]];perimeter=orthogonalPerimeter;outlineConnect=0;targetShapes=umlLifeline;portConstraint=eastwest;newEdgeStyle={&quot;curved&quot;:0,&quot;rounded&quot;:0};" parent="RM2-QQJxr75B0GMXDb8Q-3" vertex="1">
          <mxGeometry x="45" y="90" width="10" height="20" as="geometry" />
        </mxCell>
        <mxCell id="RM2-QQJxr75B0GMXDb8Q-12" value="" style="html=1;points=[[0,0,0,0,5],[0,1,0,0,-5],[1,0,0,0,5],[1,1,0,0,-5]];perimeter=orthogonalPerimeter;outlineConnect=0;targetShapes=umlLifeline;portConstraint=eastwest;newEdgeStyle={&quot;curved&quot;:0,&quot;rounded&quot;:0};" parent="RM2-QQJxr75B0GMXDb8Q-3" vertex="1">
          <mxGeometry x="45" y="130" width="10" height="50" as="geometry" />
        </mxCell>
        <mxCell id="RM2-QQJxr75B0GMXDb8Q-4" value=":CeoControl&lt;span style=&quot;caret-color: rgba(0, 0, 0, 0); color: rgba(0, 0, 0, 0); font-family: monospace; font-size: 0px; text-align: start; white-space: nowrap;&quot;&gt;%3CmxGraphModel%3E%3Croot%3E%3CmxCell%20id%3D%220%22%2F%3E%3CmxCell%20id%3D%221%22%20parent%3D%220%22%2F%3E%3CmxCell%20id%3D%222%22%20value%3D%22%3ACeoWindow%22%20style%3D%22shape%3DumlLifeline%3Bperimeter%3DlifelinePerimeter%3BwhiteSpace%3Dwrap%3Bhtml%3D1%3Bcontainer%3D1%3BdropTarget%3D0%3Bcollapsible%3D0%3BrecursiveResize%3D0%3BoutlineConnect%3D0%3BportConstraint%3Deastwest%3BnewEdgeStyle%3D%7B%26quot%3Bcurved%26quot%3B%3A0%2C%26quot%3Brounded%26quot%3B%3A0%7D%3B%22%20vertex%3D%221%22%20parent%3D%221%22%3E%3CmxGeometry%20x%3D%22140%22%20y%3D%2280%22%20width%3D%22100%22%20height%3D%22230%22%20as%3D%22geometry%22%2F%3E%3C%2FmxCell%3E%3C%2Froot%3E%3C%2FmxGraphModel%3E&lt;/span&gt;" style="shape=umlLifeline;perimeter=lifelinePerimeter;whiteSpace=wrap;html=1;container=1;dropTarget=0;collapsible=0;recursiveResize=0;outlineConnect=0;portConstraint=eastwest;newEdgeStyle={&quot;curved&quot;:0,&quot;rounded&quot;:0};" parent="1" vertex="1">
          <mxGeometry x="310" y="80" width="100" height="230" as="geometry" />
        </mxCell>
        <mxCell id="RM2-QQJxr75B0GMXDb8Q-16" value="" style="html=1;points=[[0,0,0,0,5],[0,1,0,0,-5],[1,0,0,0,5],[1,1,0,0,-5]];perimeter=orthogonalPerimeter;outlineConnect=0;targetShapes=umlLifeline;portConstraint=eastwest;newEdgeStyle={&quot;curved&quot;:0,&quot;rounded&quot;:0};" parent="RM2-QQJxr75B0GMXDb8Q-4" vertex="1">
          <mxGeometry x="45" y="140" width="10" height="40" as="geometry" />
        </mxCell>
        <mxCell id="RM2-QQJxr75B0GMXDb8Q-5" value=":Service&lt;span style=&quot;caret-color: rgba(0, 0, 0, 0); color: rgba(0, 0, 0, 0); font-family: monospace; font-size: 0px; text-align: start; white-space: nowrap;&quot;&gt;%3CmxGraphModel%3E%3Croot%3E%3CmxCell%20id%3D%220%22%2F%3E%3CmxCell%20id%3D%221%22%20parent%3D%220%22%2F%3E%3CmxCell%20id%3D%222%22%20value%3D%22%3ACeoWindow%22%20style%3D%22shape%3DumlLifeline%3Bperimeter%3DlifelinePerimeter%3BwhiteSpace%3Dwrap%3Bhtml%3D1%3Bcontainer%3D1%3BdropTarget%3D0%3Bcollapsible%3D0%3BrecursiveResize%3D0%3BoutlineConnect%3D0%3BportConstraint%3Deastwest%3BnewEdgeStyle%3D%7B%26quot%3Bcurved%26quot%3B%3A0%2C%26quot%3Brounded%26quot%3B%3A0%7D%3B%22%20vertex%3D%221%22%20parent%3D%221%22%3E%3CmxGeometry%20x%3D%22140%22%20y%3D%2280%22%20width%3D%22100%22%20height%3D%22230%22%20as%3D%22geometry%22%2F%3E%3C%2FmxCell%3E%3C%2Froot%3E%3C%2FmxGraphModel%3E&lt;/span&gt;" style="shape=umlLifeline;perimeter=lifelinePerimeter;whiteSpace=wrap;html=1;container=1;dropTarget=0;collapsible=0;recursiveResize=0;outlineConnect=0;portConstraint=eastwest;newEdgeStyle={&quot;curved&quot;:0,&quot;rounded&quot;:0};" parent="1" vertex="1">
          <mxGeometry x="425" y="80" width="100" height="230" as="geometry" />
        </mxCell>
        <mxCell id="RM2-QQJxr75B0GMXDb8Q-18" value="" style="html=1;points=[[0,0,0,0,5],[0,1,0,0,-5],[1,0,0,0,5],[1,1,0,0,-5]];perimeter=orthogonalPerimeter;outlineConnect=0;targetShapes=umlLifeline;portConstraint=eastwest;newEdgeStyle={&quot;curved&quot;:0,&quot;rounded&quot;:0};" parent="RM2-QQJxr75B0GMXDb8Q-5" vertex="1">
          <mxGeometry x="45" y="140" width="10" height="40" as="geometry" />
        </mxCell>
        <mxCell id="RM2-QQJxr75B0GMXDb8Q-6" value="TicketRepository" style="shape=umlLifeline;perimeter=lifelinePerimeter;whiteSpace=wrap;html=1;container=1;dropTarget=0;collapsible=0;recursiveResize=0;outlineConnect=0;portConstraint=eastwest;newEdgeStyle={&quot;curved&quot;:0,&quot;rounded&quot;:0};" parent="1" vertex="1">
          <mxGeometry x="540" y="80" width="100" height="230" as="geometry" />
        </mxCell>
        <mxCell id="RM2-QQJxr75B0GMXDb8Q-20" value="" style="html=1;points=[[0,0,0,0,5],[0,1,0,0,-5],[1,0,0,0,5],[1,1,0,0,-5]];perimeter=orthogonalPerimeter;outlineConnect=0;targetShapes=umlLifeline;portConstraint=eastwest;newEdgeStyle={&quot;curved&quot;:0,&quot;rounded&quot;:0};" parent="RM2-QQJxr75B0GMXDb8Q-6" vertex="1">
          <mxGeometry x="45" y="150" width="10" height="30" as="geometry" />
        </mxCell>
        <mxCell id="RM2-QQJxr75B0GMXDb8Q-7" value="DBMS" style="shape=umlLifeline;perimeter=lifelinePerimeter;whiteSpace=wrap;html=1;container=1;dropTarget=0;collapsible=0;recursiveResize=0;outlineConnect=0;portConstraint=eastwest;newEdgeStyle={&quot;curved&quot;:0,&quot;rounded&quot;:0};participant=umlActor;" parent="1" vertex="1">
          <mxGeometry x="670" y="80" width="20" height="230" as="geometry" />
        </mxCell>
        <mxCell id="RM2-QQJxr75B0GMXDb8Q-9" value="1: desc = typeDescription()" style="html=1;verticalAlign=bottom;startArrow=oval;endArrow=block;startSize=8;curved=0;rounded=0;entryX=0;entryY=0;entryDx=0;entryDy=5;" parent="1" source="RM2-QQJxr75B0GMXDb8Q-2" target="RM2-QQJxr75B0GMXDb8Q-8" edge="1">
          <mxGeometry relative="1" as="geometry">
            <mxPoint x="115" y="175" as="sourcePoint" />
          </mxGeometry>
        </mxCell>
        <mxCell id="RM2-QQJxr75B0GMXDb8Q-13" value="2: onCreateTaskButtonClick()" style="html=1;verticalAlign=bottom;startArrow=oval;endArrow=block;startSize=8;curved=0;rounded=0;entryX=0;entryY=0;entryDx=0;entryDy=5;" parent="1" source="RM2-QQJxr75B0GMXDb8Q-2" target="RM2-QQJxr75B0GMXDb8Q-12" edge="1">
          <mxGeometry relative="1" as="geometry">
            <mxPoint x="165" y="215" as="sourcePoint" />
          </mxGeometry>
        </mxCell>
        <mxCell id="RM2-QQJxr75B0GMXDb8Q-19" value="4: saveTask(desc)" style="html=1;verticalAlign=bottom;startArrow=oval;endArrow=block;startSize=8;curved=0;rounded=0;" parent="1" source="RM2-QQJxr75B0GMXDb8Q-16" target="RM2-QQJxr75B0GMXDb8Q-18" edge="1">
          <mxGeometry relative="1" as="geometry">
            <mxPoint x="365" y="230" as="sourcePoint" />
            <mxPoint x="470" y="230" as="targetPoint" />
          </mxGeometry>
        </mxCell>
        <mxCell id="RM2-QQJxr75B0GMXDb8Q-21" value="5: save(task)" style="html=1;verticalAlign=bottom;startArrow=oval;endArrow=block;startSize=8;curved=0;rounded=0;" parent="1" source="RM2-QQJxr75B0GMXDb8Q-18" target="RM2-QQJxr75B0GMXDb8Q-20" edge="1">
          <mxGeometry relative="1" as="geometry">
            <mxPoint x="480" y="250" as="sourcePoint" />
            <mxPoint x="585" y="250" as="targetPoint" />
          </mxGeometry>
        </mxCell>
        <mxCell id="RM2-QQJxr75B0GMXDb8Q-17" value="3: createTask()" style="html=1;verticalAlign=bottom;startArrow=oval;endArrow=block;startSize=8;curved=0;rounded=0;entryX=0;entryY=0;entryDx=0;entryDy=5;" parent="1" source="RM2-QQJxr75B0GMXDb8Q-12" target="RM2-QQJxr75B0GMXDb8Q-16" edge="1">
          <mxGeometry relative="1" as="geometry">
            <mxPoint x="255" y="225" as="sourcePoint" />
          </mxGeometry>
        </mxCell>
        <mxCell id="RM2-QQJxr75B0GMXDb8Q-22" value="" style="html=1;points=[[0,0,0,0,5],[0,1,0,0,-5],[1,0,0,0,5],[1,1,0,0,-5]];perimeter=orthogonalPerimeter;outlineConnect=0;targetShapes=umlLifeline;portConstraint=eastwest;newEdgeStyle={&quot;curved&quot;:0,&quot;rounded&quot;:0};" parent="1" vertex="1">
          <mxGeometry x="675" y="240" width="10" height="20" as="geometry" />
        </mxCell>
        <mxCell id="RM2-QQJxr75B0GMXDb8Q-23" value="6: INSERT SQL" style="html=1;verticalAlign=bottom;startArrow=oval;endArrow=block;startSize=8;curved=0;rounded=0;" parent="1" source="RM2-QQJxr75B0GMXDb8Q-20" target="RM2-QQJxr75B0GMXDb8Q-22" edge="1">
          <mxGeometry relative="1" as="geometry">
            <mxPoint x="605" y="245" as="sourcePoint" />
          </mxGeometry>
        </mxCell>
        <mxCell id="L8M9274PE3VWNqc8J5KW-1" value="frame" style="shape=umlFrame;whiteSpace=wrap;html=1;pointerEvents=0;" vertex="1" parent="1">
          <mxGeometry x="50" y="440" width="660" height="290" as="geometry" />
        </mxCell>
        <mxCell id="L8M9274PE3VWNqc8J5KW-2" value="CEO" style="shape=umlActor;verticalLabelPosition=bottom;verticalAlign=top;html=1;" vertex="1" parent="1">
          <mxGeometry x="150" y="470" width="20" height="40" as="geometry" />
        </mxCell>
        <mxCell id="L8M9274PE3VWNqc8J5KW-5" value=":CEOWindow" style="html=1;whiteSpace=wrap;" vertex="1" parent="1">
          <mxGeometry x="110" y="600" width="110" height="50" as="geometry" />
        </mxCell>
        <mxCell id="L8M9274PE3VWNqc8J5KW-6" value="" style="html=1;verticalAlign=bottom;endArrow=block;curved=0;rounded=0;" edge="1" parent="1">
          <mxGeometry width="80" relative="1" as="geometry">
            <mxPoint x="160" y="500" as="sourcePoint" />
            <mxPoint x="160" y="580" as="targetPoint" />
          </mxGeometry>
        </mxCell>
        <mxCell id="L8M9274PE3VWNqc8J5KW-8" value="" style="html=1;verticalAlign=bottom;endArrow=block;curved=0;rounded=0;entryX=0.449;entryY=-0.008;entryDx=0;entryDy=0;entryPerimeter=0;" edge="1" parent="1" target="L8M9274PE3VWNqc8J5KW-5">
          <mxGeometry width="80" relative="1" as="geometry">
            <mxPoint x="160" y="500" as="sourcePoint" />
            <mxPoint x="160" y="580" as="targetPoint" />
            <Array as="points" />
          </mxGeometry>
        </mxCell>
        <mxCell id="L8M9274PE3VWNqc8J5KW-21" value="1: desc = typeDescription()" style="edgeLabel;html=1;align=center;verticalAlign=middle;resizable=0;points=[];" vertex="1" connectable="0" parent="L8M9274PE3VWNqc8J5KW-8">
          <mxGeometry x="-0.0197" y="2" relative="1" as="geometry">
            <mxPoint x="83" y="-9" as="offset" />
          </mxGeometry>
        </mxCell>
        <mxCell id="L8M9274PE3VWNqc8J5KW-22" value="2: onCreateTaskButtonClick()" style="edgeLabel;html=1;align=center;verticalAlign=middle;resizable=0;points=[];" vertex="1" connectable="0" parent="L8M9274PE3VWNqc8J5KW-8">
          <mxGeometry x="0.6665" y="2" relative="1" as="geometry">
            <mxPoint x="89" y="-23" as="offset" />
          </mxGeometry>
        </mxCell>
        <mxCell id="L8M9274PE3VWNqc8J5KW-11" value=":CEOControl" style="html=1;whiteSpace=wrap;" vertex="1" parent="1">
          <mxGeometry x="300" y="650" width="110" height="50" as="geometry" />
        </mxCell>
        <mxCell id="L8M9274PE3VWNqc8J5KW-12" value=":Service" style="html=1;whiteSpace=wrap;" vertex="1" parent="1">
          <mxGeometry x="500" y="650" width="110" height="50" as="geometry" />
        </mxCell>
        <mxCell id="L8M9274PE3VWNqc8J5KW-13" value="TicketRepository" style="html=1;whiteSpace=wrap;" vertex="1" parent="1">
          <mxGeometry x="580" y="540" width="110" height="50" as="geometry" />
        </mxCell>
        <mxCell id="L8M9274PE3VWNqc8J5KW-14" value="DBMS" style="shape=umlActor;verticalLabelPosition=bottom;verticalAlign=top;html=1;" vertex="1" parent="1">
          <mxGeometry x="480" y="470" width="20" height="40" as="geometry" />
        </mxCell>
        <mxCell id="L8M9274PE3VWNqc8J5KW-18" value="3: createTask()" style="html=1;verticalAlign=bottom;endArrow=block;curved=0;rounded=0;entryX=0;entryY=0.5;entryDx=0;entryDy=0;" edge="1" parent="1" target="L8M9274PE3VWNqc8J5KW-11">
          <mxGeometry x="-0.0504" y="25" width="80" relative="1" as="geometry">
            <mxPoint x="220" y="630" as="sourcePoint" />
            <mxPoint x="300" y="630" as="targetPoint" />
            <mxPoint y="1" as="offset" />
          </mxGeometry>
        </mxCell>
        <mxCell id="L8M9274PE3VWNqc8J5KW-24" value="4: saveTask(desc)" style="html=1;verticalAlign=bottom;endArrow=block;curved=0;rounded=0;exitX=1;exitY=0.5;exitDx=0;exitDy=0;entryX=0;entryY=0.5;entryDx=0;entryDy=0;" edge="1" parent="1" source="L8M9274PE3VWNqc8J5KW-11" target="L8M9274PE3VWNqc8J5KW-12">
          <mxGeometry x="-0.1111" y="15" width="80" relative="1" as="geometry">
            <mxPoint x="450" y="680" as="sourcePoint" />
            <mxPoint x="530" y="680" as="targetPoint" />
            <mxPoint as="offset" />
          </mxGeometry>
        </mxCell>
        <mxCell id="L8M9274PE3VWNqc8J5KW-25" value="5: save(task)" style="html=1;verticalAlign=bottom;endArrow=block;curved=0;rounded=0;exitX=0.5;exitY=0;exitDx=0;exitDy=0;entryX=0.5;entryY=1;entryDx=0;entryDy=0;" edge="1" parent="1" source="L8M9274PE3VWNqc8J5KW-12" target="L8M9274PE3VWNqc8J5KW-13">
          <mxGeometry x="-0.56" y="21" width="80" relative="1" as="geometry">
            <mxPoint x="580" y="620" as="sourcePoint" />
            <mxPoint x="660" y="620" as="targetPoint" />
            <mxPoint as="offset" />
          </mxGeometry>
        </mxCell>
        <mxCell id="L8M9274PE3VWNqc8J5KW-26" value="6: INSERT SQL" style="html=1;verticalAlign=bottom;endArrow=block;curved=0;rounded=0;exitX=0.5;exitY=0;exitDx=0;exitDy=0;" edge="1" parent="1" source="L8M9274PE3VWNqc8J5KW-13" target="L8M9274PE3VWNqc8J5KW-14">
          <mxGeometry x="-0.2216" y="-23" width="80" relative="1" as="geometry">
            <mxPoint x="610" y="540" as="sourcePoint" />
            <mxPoint x="690" y="540" as="targetPoint" />
            <mxPoint as="offset" />
          </mxGeometry>
        </mxCell>
      </root>
    </mxGraphModel>
  </diagram>
</mxfile>
